<svg width="27" height="31" viewBox="0 0 27 31" fill="none" xmlns="http://www.w3.org/2000/svg">
<path d="M13.5771 13.4946C13.5771 13.1106 13.8884 12.7993 14.2724 12.7993C14.6564 12.7993 14.9677 13.1106 14.9677 13.4946C14.9677 13.8786 14.6564 14.1899 14.2724 14.1899C13.8884 14.1899 13.5771 13.8786 13.5771 13.4946Z" fill="white"/>
<path d="M15.7074 13.8974C15.7074 13.5135 16.0187 13.2021 16.4027 13.2021C16.7867 13.2021 17.098 13.5135 17.098 13.8974C17.098 14.2814 16.7867 14.5927 16.4027 14.5927C16.0187 14.5927 15.7074 14.2814 15.7074 13.8974Z" fill="white"/>
<path d="M17.7835 15.2318C17.7835 14.8479 18.0948 14.5366 18.4788 14.5366C18.8628 14.5366 19.1741 14.8479 19.1741 15.2318C19.1741 15.6159 18.8628 15.9271 18.4788 15.9271C18.0948 15.9271 17.7835 15.6159 17.7835 15.2318Z" fill="white"/>
<path d="M19.0606 17.1533C19.0606 16.7693 19.3718 16.458 19.7558 16.458C20.1398 16.458 20.4511 16.7693 20.4511 17.1533C20.4511 17.5373 20.1398 17.8486 19.7558 17.8486C19.3718 17.8486 19.0606 17.5373 19.0606 17.1533Z" fill="white"/>
<path d="M19.5835 19.4414C19.5835 19.0574 19.8948 18.7461 20.2788 18.7461C20.6628 18.7461 20.9741 19.0574 20.9741 19.4414C20.9741 19.8253 20.6628 20.1367 20.2788 20.1367C19.8948 20.1367 19.5835 19.8253 19.5835 19.4414Z" fill="white"/>
<path d="M7.44212 19.5298C7.44212 19.1458 7.75338 18.8345 8.13741 18.8345C8.52137 18.8345 8.8327 19.1458 8.8327 19.5298C8.8327 19.9138 8.52137 20.225 8.13741 20.225C7.75338 20.225 7.44212 19.9138 7.44212 19.5298Z" fill="white"/>
<path d="M19.0606 21.7793C19.0606 21.3952 19.3718 21.084 19.7558 21.084C20.1398 21.084 20.4511 21.3952 20.4511 21.7793C20.4511 22.1632 20.1398 22.4746 19.7558 22.4746C19.3718 22.4746 19.0606 22.1632 19.0606 21.7793Z" fill="white"/>
<path d="M17.7835 23.7539C17.7835 23.3698 18.0948 23.0586 18.4788 23.0586C18.8628 23.0586 19.1741 23.3698 19.1741 23.7539C19.1741 24.1378 18.8628 24.4492 18.4788 24.4492C18.0948 24.4492 17.7835 24.1378 17.7835 23.7539Z" fill="white"/>
<path d="M15.7805 25.0868C15.7805 24.7029 16.0918 24.3916 16.4757 24.3916C16.8598 24.3916 17.171 24.7029 17.171 25.0868C17.171 25.4708 16.8598 25.7821 16.4757 25.7821C16.0918 25.7821 15.7805 25.4708 15.7805 25.0868Z" fill="white"/>
<path d="M13.5771 25.6093C13.5771 25.2254 13.8884 24.9141 14.2724 24.9141C14.6564 24.9141 14.9677 25.2254 14.9677 25.6093C14.9677 25.9934 14.6564 26.3046 14.2724 26.3046C13.8884 26.3046 13.5771 25.9934 13.5771 25.6093Z" fill="white"/>
<path d="M11.2083 25.0868C11.2083 24.7029 11.5197 24.3916 11.9036 24.3916C12.2877 24.3916 12.5989 24.7029 12.5989 25.0868C12.5989 25.4708 12.2877 25.7821 11.9036 25.7821C11.5197 25.7821 11.2083 25.4708 11.2083 25.0868Z" fill="white"/>
<path d="M9.27087 23.7539C9.27087 23.3698 9.58213 23.0586 9.96616 23.0586C10.3501 23.0586 10.6614 23.3698 10.6614 23.7539C10.6614 24.1378 10.3501 24.4492 9.96616 24.4492C9.58213 24.4492 9.27087 24.1378 9.27087 23.7539Z" fill="white"/>
<path d="M7.84517 21.7793C7.84517 21.3952 8.15643 21.084 8.54045 21.084C8.92441 21.084 9.23574 21.3952 9.23574 21.7793C9.23574 22.1632 8.92441 22.4746 8.54045 22.4746C8.15643 22.4746 7.84517 22.1632 7.84517 21.7793Z" fill="white"/>
<path d="M7.84517 17.1533C7.84517 16.7693 8.15643 16.458 8.54045 16.458C8.92441 16.458 9.23574 16.7693 9.23574 17.1533C9.23574 17.5373 8.92441 17.8486 8.54045 17.8486C8.15643 17.8486 7.84517 17.5373 7.84517 17.1533Z" fill="white"/>
<path d="M9.27087 15.2318C9.27087 14.8479 9.58213 14.5366 9.96616 14.5366C10.3501 14.5366 10.6614 14.8479 10.6614 15.2318C10.6614 15.6159 10.3501 15.9271 9.96616 15.9271C9.58213 15.9271 9.27087 15.6159 9.27087 15.2318Z" fill="white"/>
<path d="M11.2083 13.8974C11.2083 13.5135 11.5197 13.2021 11.9036 13.2021C12.2877 13.2021 12.5989 13.5135 12.5989 13.8974C12.5989 14.2814 12.2877 14.5927 11.9036 14.5927C11.5197 14.5927 11.2083 14.2814 11.2083 13.8974Z" fill="white"/>
<path d="M9.82004 12.8725C9.82004 12.6805 9.97567 12.5249 10.1676 12.5249C10.3596 12.5249 10.5153 12.6805 10.5153 12.8725C10.5153 13.0646 10.3596 13.2202 10.1676 13.2202C9.97567 13.2202 9.82004 13.0646 9.82004 12.8725Z" fill="white"/>
<path d="M12.5989 11.7651C12.5989 11.5731 12.7545 11.4175 12.9465 11.4175C13.1385 11.4175 13.2942 11.5731 13.2942 11.7651C13.2942 11.9571 13.1385 12.1128 12.9465 12.1128C12.7545 12.1128 12.5989 11.9571 12.5989 11.7651Z" fill="white"/>
<path d="M15.5613 11.8437C15.5613 11.6517 15.717 11.4961 15.9089 11.4961C16.1009 11.4961 16.2566 11.6517 16.2566 11.8437C16.2566 12.0358 16.1009 12.1914 15.9089 12.1914C15.717 12.1914 15.5613 12.0358 15.5613 11.8437Z" fill="white"/>
<path d="M18.2922 12.9453C18.2922 12.7533 18.4478 12.5977 18.6399 12.5977C18.8318 12.5977 18.9875 12.7533 18.9875 12.9453C18.9875 13.1373 18.8318 13.2929 18.6399 13.2929C18.4478 13.2929 18.2922 13.1373 18.2922 12.9453Z" fill="white"/>
<path d="M20.4803 15.0864C20.4803 14.8944 20.6359 14.7388 20.8279 14.7388C21.0199 14.7388 21.1756 14.8944 21.1756 15.0864C21.1756 15.2784 21.0199 15.4341 20.8279 15.4341C20.6359 15.4341 20.4803 15.2784 20.4803 15.0864Z" fill="white"/>
<path d="M21.5409 20.938C21.5409 20.746 21.6965 20.5903 21.8885 20.5903C22.0806 20.5903 22.2362 20.746 22.2362 20.938C22.2362 21.13 22.0806 21.2856 21.8885 21.2856C21.6965 21.2856 21.5409 21.13 21.5409 20.938Z" fill="white"/>
<path d="M21.5409 17.9219C21.5409 17.7298 21.6965 17.5742 21.8885 17.5742C22.0806 17.5742 22.2362 17.7298 22.2362 17.9219C22.2362 18.1139 22.0806 18.2695 21.8885 18.2695C21.6965 18.2695 21.5409 18.1139 21.5409 17.9219Z" fill="white"/>
<path d="M20.3518 23.6807C20.3518 23.4886 20.5074 23.333 20.6995 23.333C20.8915 23.333 21.0471 23.4886 21.0471 23.6807C21.0471 23.8727 20.8915 24.0283 20.6995 24.0283C20.5074 24.0283 20.3518 23.8727 20.3518 23.6807Z" fill="white"/>
<path d="M18.2042 25.7822C18.2042 25.5903 18.3599 25.4346 18.5519 25.4346C18.7439 25.4346 18.8995 25.5903 18.8995 25.7822C18.8995 25.9742 18.7439 26.1299 18.5519 26.1299C18.3599 26.1299 18.2042 25.9742 18.2042 25.7822Z" fill="white"/>
<path d="M15.4882 26.9394C15.4882 26.7474 15.6439 26.5918 15.8358 26.5918C16.0278 26.5918 16.1835 26.7474 16.1835 26.9394C16.1835 27.1315 16.0278 27.2871 15.8358 27.2871C15.6439 27.2871 15.4882 27.1315 15.4882 26.9394Z" fill="white"/>
<path d="M12.4705 26.98C12.4705 26.788 12.6261 26.6323 12.8181 26.6323C13.0101 26.6323 13.1657 26.788 13.1657 26.98C13.1657 27.1719 13.0101 27.3276 12.8181 27.3276C12.6261 27.3276 12.4705 27.1719 12.4705 26.98Z" fill="white"/>
<path d="M13.8517 28.5508C13.8517 28.3904 13.9818 28.2603 14.1422 28.2603C14.3027 28.2603 14.4328 28.3904 14.4328 28.5508C14.4328 28.7113 14.3027 28.8414 14.1422 28.8414C13.9818 28.8414 13.8517 28.7113 13.8517 28.5508Z" fill="white"/>
<path d="M17.3486 27.9859C17.3486 27.8254 17.4786 27.6953 17.6391 27.6953C17.7996 27.6953 17.9297 27.8254 17.9297 27.9859C17.9297 28.1463 17.7996 28.2765 17.6391 28.2765C17.4786 28.2765 17.3486 28.1463 17.3486 27.9859Z" fill="white"/>
<path d="M20.4511 26.0298C20.4511 25.8693 20.5812 25.7393 20.7416 25.7393C20.9021 25.7393 21.0322 25.8693 21.0322 26.0298C21.0322 26.1903 20.9021 26.3203 20.7416 26.3203C20.5812 26.3203 20.4511 26.1903 20.4511 26.0298Z" fill="white"/>
<path d="M22.6344 23.1333C22.6344 22.9728 22.7644 22.8428 22.9249 22.8428C23.0854 22.8428 23.2155 22.9728 23.2155 23.1333C23.2155 23.2938 23.0854 23.4239 22.9249 23.4239C22.7644 23.4239 22.6344 23.2938 22.6344 23.1333Z" fill="white"/>
<path d="M23.4399 19.4415C23.4399 19.281 23.57 19.1509 23.7305 19.1509C23.891 19.1509 24.021 19.281 24.021 19.4415C24.021 19.6019 23.891 19.732 23.7305 19.732C23.57 19.732 23.4399 19.6019 23.4399 19.4415Z" fill="white"/>
<path d="M22.9249 15.9272C22.9249 15.7668 23.055 15.6367 23.2155 15.6367C23.3759 15.6367 23.506 15.7668 23.506 15.9272C23.506 16.0877 23.3759 16.2178 23.2155 16.2178C23.055 16.2178 22.9249 16.0877 22.9249 15.9272Z" fill="white"/>
<path d="M20.9581 12.7276C20.9581 12.5671 21.0882 12.437 21.2486 12.437C21.4091 12.437 21.5392 12.5671 21.5392 12.7276C21.5392 12.888 21.4091 13.0181 21.2486 13.0181C21.0882 13.0181 20.9581 12.888 20.9581 12.7276Z" fill="white"/>
<path d="M18.0027 10.8252C18.0027 10.6647 18.1328 10.5347 18.2933 10.5347C18.4538 10.5347 18.5838 10.6647 18.5838 10.8252C18.5838 10.9857 18.4538 11.1158 18.2933 11.1158C18.1328 11.1158 18.0027 10.9857 18.0027 10.8252Z" fill="white"/>
<path d="M14.604 9.86431C14.604 9.70386 14.7342 9.57373 14.8946 9.57373C15.0551 9.57373 15.1852 9.70386 15.1852 9.86431C15.1852 10.0248 15.0551 10.1548 14.8946 10.1548C14.7342 10.1548 14.604 10.0248 14.604 9.86431Z" fill="white"/>
<path d="M10.9178 10.3882C10.9178 10.2278 11.0479 10.0977 11.2084 10.0977C11.3688 10.0977 11.4989 10.2278 11.4989 10.3882C11.4989 10.5487 11.3688 10.6787 11.2084 10.6787C11.0479 10.6787 10.9178 10.5487 10.9178 10.3882Z" fill="white"/>
<path d="M7.77377 12.3072C7.77377 12.1467 7.9039 12.0166 8.06435 12.0166C8.2248 12.0166 8.35493 12.1467 8.35493 12.3072C8.35493 12.4676 8.2248 12.5977 8.06435 12.5977C7.9039 12.5977 7.77377 12.4676 7.77377 12.3072Z" fill="white"/>
<path d="M5.72787 15.2881C5.72787 15.1277 5.85793 14.9976 6.01845 14.9976C6.1789 14.9976 6.30896 15.1277 6.30896 15.2881C6.30896 15.4486 6.1789 15.5786 6.01845 15.5786C5.85793 15.5786 5.72787 15.4486 5.72787 15.2881Z" fill="white"/>
<path d="M4.75662 18.7612C4.75662 18.6008 4.88668 18.4707 5.04713 18.4707C5.20765 18.4707 5.33771 18.6008 5.33771 18.7612C5.33771 18.9217 5.20765 19.0518 5.04713 19.0518C4.88668 19.0518 4.75662 18.9217 4.75662 18.7612Z" fill="white"/>
<path d="M5.4373 22.4747C5.4373 22.3142 5.56743 22.1841 5.72788 22.1841C5.88833 22.1841 6.01846 22.3142 6.01846 22.4747C6.01846 22.6351 5.88833 22.7652 5.72788 22.7652C5.56743 22.7652 5.4373 22.6351 5.4373 22.4747Z" fill="white"/>
<path d="M7.29601 25.4918C7.29601 25.3313 7.42606 25.2012 7.58659 25.2012C7.74704 25.2012 7.87709 25.3313 7.87709 25.4918C7.87709 25.6522 7.74704 25.7823 7.58659 25.7823C7.42606 25.7823 7.29601 25.6522 7.29601 25.4918Z" fill="white"/>
<path d="M10.2247 27.8238C10.2247 27.6633 10.3548 27.5332 10.5152 27.5332C10.6758 27.5332 10.8058 27.6633 10.8058 27.8238C10.8058 27.9842 10.6758 28.1143 10.5152 28.1143C10.3548 28.1143 10.2247 27.9842 10.2247 27.8238Z" fill="white"/>
<path d="M12.0497 29.8798C12.0497 29.7636 12.1439 29.6694 12.2601 29.6694C12.3763 29.6694 12.4705 29.7636 12.4705 29.8798C12.4705 29.996 12.3763 30.0901 12.2601 30.0901C12.1439 30.0901 12.0497 29.996 12.0497 29.8798Z" fill="white"/>
<path d="M16.1835 29.7978C16.1835 29.6816 16.2777 29.5874 16.3938 29.5874C16.51 29.5874 16.6042 29.6816 16.6042 29.7978C16.6042 29.9139 16.51 30.0081 16.3938 30.0081C16.2777 30.0081 16.1835 29.9139 16.1835 29.7978Z" fill="white"/>
<path d="M20.0596 28.3246C20.0596 28.2084 20.1538 28.1143 20.2699 28.1143C20.3861 28.1143 20.4803 28.2084 20.4803 28.3246C20.4803 28.4408 20.3861 28.535 20.2699 28.535C20.1538 28.535 20.0596 28.4408 20.0596 28.3246Z" fill="white"/>
<path d="M23.2296 25.3988C23.2296 25.2827 23.3237 25.1885 23.4399 25.1885C23.5561 25.1885 23.6503 25.2827 23.6503 25.3988C23.6503 25.515 23.5561 25.6092 23.4399 25.6092C23.3237 25.6092 23.2296 25.515 23.2296 25.3988Z" fill="white"/>
<path d="M24.7382 21.496C24.7382 21.3798 24.8324 21.2856 24.9486 21.2856C25.0647 21.2856 25.1589 21.3798 25.1589 21.496C25.1589 21.6122 25.0647 21.7064 24.9486 21.7064C24.8324 21.7064 24.7382 21.6122 24.7382 21.496Z" fill="white"/>
<path d="M24.9457 17.3637C24.9457 17.2475 25.0399 17.1533 25.1561 17.1533C25.2722 17.1533 25.3664 17.2475 25.3664 17.3637C25.3664 17.4798 25.2722 17.574 25.1561 17.574C25.0399 17.574 24.9457 17.4798 24.9457 17.3637Z" fill="white"/>
<path d="M23.2957 13.2841C23.2957 13.1679 23.3899 13.0737 23.506 13.0737C23.6222 13.0737 23.7164 13.1679 23.7164 13.2841C23.7164 13.4003 23.6222 13.4944 23.506 13.4944C23.3899 13.4944 23.2957 13.4003 23.2957 13.2841Z" fill="white"/>
<path d="M20.3139 10.4682C20.3139 10.352 20.408 10.2578 20.5242 10.2578C20.6404 10.2578 20.7345 10.352 20.7345 10.4682C20.7345 10.5843 20.6404 10.6785 20.5242 10.6785C20.408 10.6785 20.3139 10.5843 20.3139 10.4682Z" fill="white"/>
<path d="M16.6042 8.65274C16.6042 8.53656 16.6984 8.44238 16.8145 8.44238C16.9307 8.44238 17.0249 8.53656 17.0249 8.65274C17.0249 8.76891 16.9307 8.86302 16.8145 8.86302C16.6984 8.86302 16.6042 8.76891 16.6042 8.65274Z" fill="white"/>
<path d="M12.3332 8.56045C12.3332 8.44428 12.4274 8.3501 12.5435 8.3501C12.6597 8.3501 12.7539 8.44428 12.7539 8.56045C12.7539 8.67662 12.6597 8.77081 12.5435 8.77081C12.4274 8.77081 12.3332 8.67662 12.3332 8.56045Z" fill="white"/>
<path d="M8.33893 10.0976C8.33893 9.98139 8.43311 9.88721 8.54928 9.88721C8.66546 9.88721 8.75964 9.98139 8.75964 10.0976C8.75964 10.2137 8.66546 10.3079 8.54928 10.3079C8.43311 10.3079 8.33893 10.2137 8.33893 10.0976Z" fill="white"/>
<path d="M5.4373 13.0824C5.4373 12.9663 5.53148 12.8721 5.64766 12.8721C5.76383 12.8721 5.85801 12.9663 5.85801 13.0824C5.85801 13.1986 5.76383 13.2928 5.64766 13.2928C5.53148 13.2928 5.4373 13.1986 5.4373 13.0824Z" fill="white"/>
<path d="M3.65323 16.9433C3.65323 16.8271 3.74741 16.7329 3.86358 16.7329C3.97979 16.7329 4.0739 16.8271 4.0739 16.9433C4.0739 17.0594 3.97979 17.1536 3.86358 17.1536C3.74741 17.1536 3.65323 17.0594 3.65323 16.9433Z" fill="white"/>
<path d="M3.71086 21.1483C3.71086 21.0322 3.80504 20.938 3.92122 20.938C4.03739 20.938 4.13157 21.0322 4.13157 21.1483C4.13157 21.2645 4.03739 21.3587 3.92122 21.3587C3.80504 21.3587 3.71086 21.2645 3.71086 21.1483Z" fill="white"/>
<path d="M5.08797 25.0639C5.08797 24.9477 5.18215 24.8535 5.29832 24.8535C5.41449 24.8535 5.50868 24.9477 5.50868 25.0639C5.50868 25.18 5.41449 25.2742 5.29832 25.2742C5.18215 25.2742 5.08797 25.18 5.08797 25.0639Z" fill="white"/>
<path d="M8.06435 28.3246C8.06435 28.2084 8.15853 28.1143 8.2747 28.1143C8.39087 28.1143 8.48505 28.2084 8.48505 28.3246C8.48505 28.4408 8.39087 28.535 8.2747 28.535C8.15853 28.535 8.06435 28.4408 8.06435 28.3246Z" fill="white"/>
<path d="M9.61853 25.6826C9.61853 25.4907 9.77416 25.335 9.96617 25.335C10.1581 25.335 10.3137 25.4907 10.3137 25.6826C10.3137 25.8746 10.1581 26.0302 9.96617 26.0302C9.77416 26.0302 9.61853 25.8746 9.61853 25.6826Z" fill="white"/>
<path d="M7.64366 23.5522C7.64366 23.3602 7.79929 23.2046 7.99131 23.2046C8.18332 23.2046 8.33895 23.3602 8.33895 23.5522C8.33895 23.7442 8.18332 23.8999 7.99131 23.8999C7.79929 23.8999 7.64366 23.7442 7.64366 23.5522Z" fill="white"/>
<path d="M6.45459 20.7363C6.45459 20.5443 6.61022 20.3887 6.80223 20.3887C6.99425 20.3887 7.14988 20.5443 7.14988 20.7363C7.14988 20.9283 6.99425 21.084 6.80223 21.084C6.61022 21.084 6.45459 20.9283 6.45459 20.7363Z" fill="white"/>
<path d="M6.60069 17.7754C6.60069 17.5834 6.75632 17.4277 6.94834 17.4277C7.14035 17.4277 7.29598 17.5834 7.29598 17.7754C7.29598 17.9674 7.14035 18.123 6.94834 18.123C6.75632 18.123 6.60069 17.9674 6.60069 17.7754Z" fill="white"/>
<path d="M7.64366 14.9404C7.64366 14.7484 7.79929 14.5928 7.99131 14.5928C8.18332 14.5928 8.33895 14.7484 8.33895 14.9404C8.33895 15.1324 8.18332 15.2881 7.99131 15.2881C7.79929 15.2881 7.64366 15.1324 7.64366 14.9404Z" fill="white"/>
<path d="M2.38703 1.6709C2.86445 1.6709 3.27113 1.83003 3.60708 2.14831C3.94303 2.46658 4.11101 2.96462 4.11101 3.6424V5.98523C4.11101 6.0854 4.07418 6.17235 4.00046 6.24607C3.92681 6.31972 3.83986 6.35655 3.73969 6.35655C3.63952 6.35655 3.55403 6.31972 3.48331 6.24607C3.41258 6.17235 3.37722 6.0854 3.37722 5.98523V3.6424C3.37722 3.21216 3.26521 2.88357 3.04126 2.65665C2.81732 2.42974 2.52849 2.31628 2.17485 2.31628C1.76817 2.31628 1.43812 2.45185 1.18468 2.72296C0.925346 2.98819 0.775052 3.27405 0.733792 3.58052V5.98523C0.733792 6.0854 0.696952 6.17235 0.623281 6.24607C0.549609 6.31972 0.465622 6.35655 0.371317 6.35655C0.271123 6.35655 0.184182 6.31972 0.110511 6.24607C0.0368394 6.17235 0 6.0854 0 5.98523V2.0599C0 1.9597 0.0368394 1.87277 0.110511 1.79909C0.184182 1.72542 0.271123 1.68858 0.371317 1.68858C0.471511 1.68858 0.556974 1.72542 0.627701 1.79909C0.698428 1.87277 0.733792 1.9597 0.733792 2.0599V2.77601C0.769155 2.55794 0.937131 2.32218 1.23772 2.06874C1.53831 1.80351 1.92141 1.6709 2.38703 1.6709Z" fill="white"/>
<path d="M7.25835 1.66211C7.8124 1.66211 8.31925 1.86545 8.77898 2.27213C9.24462 2.67881 9.4774 3.2181 9.4774 3.89C9.4774 4.16699 9.32119 4.30552 9.00884 4.30552L5.7554 4.28784C5.79076 4.75348 5.96166 5.11296 6.26817 5.36642C6.57468 5.61989 6.93715 5.74658 7.3556 5.74658C7.74459 5.74658 8.08647 5.63457 8.38114 5.41063C8.51667 5.32222 8.61984 5.27801 8.69057 5.27801C8.8733 5.27801 8.96463 5.36935 8.96463 5.55208C8.96463 5.65817 8.89982 5.76718 8.77013 5.87919C8.41058 6.19746 7.93317 6.3566 7.33791 6.3566C6.70729 6.3566 6.15916 6.15326 5.69351 5.74658C5.22787 5.3399 4.99509 4.76524 4.99509 4.02261C4.99509 3.52752 5.11594 3.09138 5.35756 2.71417C5.81729 2.0128 6.45091 1.66211 7.25835 1.66211ZM7.25835 2.30749C6.89295 2.30749 6.55992 2.43126 6.25933 2.67881C5.95874 2.92635 5.79076 3.27999 5.7554 3.7397H8.76129C8.72593 3.27999 8.55795 2.92635 8.25736 2.67881C7.96269 2.43126 7.62966 2.30749 7.25835 2.30749Z" fill="white"/>
<path d="M12.669 1.66208C13.2112 1.66208 13.7093 1.87132 14.1631 2.28978C14.6169 2.70826 14.8438 3.28291 14.8438 4.01374C14.8438 4.75638 14.6199 5.33396 14.1719 5.74655C13.7181 6.165 13.2171 6.37426 12.669 6.37426C12.2976 6.37426 11.9661 6.27701 11.6743 6.08251C11.3826 5.88801 11.1896 5.64638 11.0953 5.35756V5.9941C11.0953 6.09427 11.0585 6.18122 10.9847 6.25494C10.9111 6.32859 10.8271 6.36541 10.7328 6.36541C10.6326 6.36541 10.5457 6.32859 10.472 6.25494C10.3983 6.18122 10.3615 6.09427 10.3615 5.9941V0.371316C10.3615 0.271122 10.3983 0.18419 10.472 0.110511C10.5457 0.0368394 10.6326 0 10.7328 0C10.833 0 10.9199 0.0368394 10.9936 0.110511C11.0673 0.18419 11.1041 0.271122 11.1041 0.371316V2.57269C11.2456 2.28978 11.4563 2.06729 11.7362 1.90521C12.0162 1.74313 12.3271 1.66208 12.669 1.66208ZM12.5629 5.72887C12.9696 5.72887 13.3261 5.57858 13.6326 5.27799C13.9509 4.9774 14.11 4.55596 14.11 4.01374C14.11 3.47153 13.9509 3.0501 13.6326 2.74951C13.3261 2.44892 12.9696 2.29862 12.5629 2.29862C12.1739 2.29862 11.8232 2.44597 11.5108 2.74067C11.2102 3.03537 11.0599 3.45969 11.0599 4.01374C11.0599 4.56188 11.2131 4.98624 11.5196 5.28683C11.832 5.5815 12.1798 5.72887 12.5629 5.72887Z" fill="white"/>
<path d="M17.4519 6.37413C16.9745 6.37413 16.5678 6.21499 16.2318 5.89672C15.8959 5.57845 15.7279 5.08044 15.7279 4.40261V2.05979C15.7279 1.9596 15.7647 1.87267 15.8384 1.79899C15.9121 1.72532 15.999 1.68848 16.0992 1.68848C16.1994 1.68848 16.2849 1.72532 16.3556 1.79899C16.4263 1.87267 16.4617 1.9596 16.4617 2.05979V4.40261C16.4617 4.83289 16.5737 5.16147 16.7976 5.38841C17.0216 5.61527 17.3104 5.72874 17.6641 5.72874C18.0707 5.72874 18.4008 5.59613 18.6542 5.3309C18.9135 5.05392 19.0638 4.76509 19.1051 4.4645V2.05979C19.1051 1.9596 19.1419 1.87267 19.2156 1.79899C19.2893 1.72532 19.3733 1.68848 19.4676 1.68848C19.5678 1.68848 19.6547 1.72532 19.7284 1.79899C19.8021 1.87267 19.8389 1.9596 19.8389 2.05979V5.98513C19.8389 6.0853 19.8021 6.17225 19.7284 6.24597C19.6547 6.31962 19.5678 6.35644 19.4676 6.35644C19.3674 6.35644 19.2819 6.31962 19.2112 6.24597C19.1405 6.17225 19.1051 6.0853 19.1051 5.98513V5.26902C19.0698 5.4812 18.9018 5.7199 18.6012 5.98513C18.2947 6.24444 17.9116 6.37413 17.4519 6.37413Z" fill="white"/>
<path d="M21.6336 0.362476V5.98526C21.6336 6.08543 21.5968 6.17238 21.523 6.2461C21.4494 6.31975 21.3654 6.35657 21.2711 6.35657C21.1709 6.35657 21.084 6.31975 21.0103 6.2461C20.9366 6.17238 20.8998 6.08543 20.8998 5.98526V0.362476C20.8998 0.262282 20.9366 0.176817 21.0103 0.106091C21.084 0.0353637 21.1709 0 21.2711 0C21.3654 0 21.4494 0.0353637 21.523 0.106091C21.5968 0.176817 21.6336 0.262282 21.6336 0.362476Z" fill="white"/>
<path d="M24.6925 1.66211C25.0344 1.66211 25.3482 1.7461 25.634 1.91407C25.9199 2.08205 26.1307 2.30749 26.2662 2.5904V2.05995C26.2662 1.95975 26.3016 1.87282 26.3723 1.79914C26.443 1.72547 26.5285 1.68863 26.6287 1.68863C26.7348 1.68863 26.8232 1.72547 26.8939 1.79914C26.9646 1.87282 27 1.95975 27 2.05995V5.99412C27 6.0943 26.9632 6.18124 26.8894 6.25497C26.8158 6.32862 26.7288 6.36544 26.6287 6.36544C26.5343 6.36544 26.4504 6.32862 26.3767 6.25497C26.303 6.18124 26.2662 6.0943 26.2662 5.99412V5.35758C26.1719 5.64641 25.9788 5.88803 25.6871 6.08253C25.3953 6.27703 25.0638 6.37428 24.6925 6.37428C24.1444 6.37428 23.6434 6.16502 23.1896 5.74658C22.7416 5.33398 22.5177 4.7564 22.5177 4.01377C22.5177 3.27704 22.7416 2.70239 23.1896 2.28981C23.6434 1.87135 24.1444 1.66211 24.6925 1.66211ZM24.7986 5.7289C25.1817 5.7289 25.5295 5.58153 25.8418 5.28686C26.1483 4.98627 26.3016 4.5619 26.3016 4.01377C26.3016 3.45387 26.1483 3.0295 25.8418 2.74069C25.5353 2.446 25.1876 2.29865 24.7986 2.29865C24.3978 2.29865 24.0383 2.44895 23.72 2.74954C23.4077 3.05012 23.2515 3.47156 23.2515 4.01377C23.2515 4.55599 23.4077 4.97743 23.72 5.27801C24.0383 5.5786 24.3978 5.7289 24.7986 5.7289Z" fill="white"/>
</svg>
