<svg width="48" height="54" viewBox="0 0 48 54" fill="none" xmlns="http://www.w3.org/2000/svg">
<path d="M24.1372 23.9905C24.1372 23.3079 24.6907 22.7544 25.3733 22.7544C26.056 22.7544 26.6093 23.3079 26.6093 23.9905C26.6093 24.6732 26.056 25.2265 25.3733 25.2265C24.6907 25.2265 24.1372 24.6732 24.1372 23.9905Z" fill="black"/>
<path d="M27.9248 24.7063C27.9248 24.0237 28.4783 23.4702 29.1609 23.4702C29.8436 23.4702 30.3969 24.0237 30.3969 24.7063C30.3969 25.3889 29.8436 25.9423 29.1609 25.9423C28.4783 25.9423 27.9248 25.3889 27.9248 24.7063Z" fill="black"/>
<path d="M31.6152 27.0787C31.6152 26.3961 32.1686 25.8428 32.8513 25.8428C33.5339 25.8428 34.0874 26.3961 34.0874 27.0787C34.0874 27.7614 33.5339 28.3148 32.8513 28.3148C32.1686 28.3148 31.6152 27.7614 31.6152 27.0787Z" fill="black"/>
<path d="M33.8857 30.4944C33.8857 29.8118 34.4391 29.2583 35.1218 29.2583C35.8044 29.2583 36.3579 29.8118 36.3579 30.4944C36.3579 31.1771 35.8044 31.7304 35.1218 31.7304C34.4391 31.7304 33.8857 31.1771 33.8857 30.4944Z" fill="black"/>
<path d="M34.8149 34.5627C34.8149 33.88 35.3684 33.3267 36.051 33.3267C36.7337 33.3267 37.2871 33.88 37.2871 34.5627C37.2871 35.2453 36.7337 35.7988 36.051 35.7988C35.3684 35.7988 34.8149 35.2453 34.8149 34.5627Z" fill="black"/>
<path d="M13.231 34.7195C13.231 34.0369 13.7843 33.4834 14.467 33.4834C15.1496 33.4834 15.7031 34.0369 15.7031 34.7195C15.7031 35.4022 15.1496 35.9555 14.467 35.9555C13.7843 35.9555 13.231 35.4022 13.231 34.7195Z" fill="black"/>
<path d="M33.8857 38.7185C33.8857 38.0358 34.4391 37.4824 35.1218 37.4824C35.8044 37.4824 36.3579 38.0358 36.3579 38.7185C36.3579 39.4011 35.8044 39.9546 35.1218 39.9546C34.4391 39.9546 33.8857 39.4011 33.8857 38.7185Z" fill="black"/>
<path d="M31.6152 42.2292C31.6152 41.5465 32.1686 40.9932 32.8513 40.9932C33.5339 40.9932 34.0874 41.5465 34.0874 42.2292C34.0874 42.9118 33.5339 43.4653 32.8513 43.4653C32.1686 43.4653 31.6152 42.9118 31.6152 42.2292Z" fill="black"/>
<path d="M28.0547 44.5987C28.0547 43.9161 28.6082 43.3628 29.2908 43.3628C29.9735 43.3628 30.5268 43.9161 30.5268 44.5987C30.5268 45.2814 29.9735 45.8348 29.2908 45.8348C28.6082 45.8348 28.0547 45.2814 28.0547 44.5987Z" fill="black"/>
<path d="M24.1372 45.5276C24.1372 44.845 24.6907 44.2915 25.3733 44.2915C26.056 44.2915 26.6093 44.845 26.6093 45.5276C26.6093 46.2103 26.056 46.7636 25.3733 46.7636C24.6907 46.7636 24.1372 46.2103 24.1372 45.5276Z" fill="black"/>
<path d="M19.9263 44.5987C19.9263 43.9161 20.4797 43.3628 21.1623 43.3628C21.8451 43.3628 22.3984 43.9161 22.3984 44.5987C22.3984 45.2814 21.8451 45.8348 21.1623 45.8348C20.4797 45.8348 19.9263 45.2814 19.9263 44.5987Z" fill="black"/>
<path d="M16.4819 42.2292C16.4819 41.5465 17.0353 40.9932 17.718 40.9932C18.4006 40.9932 18.9539 41.5465 18.9539 42.2292C18.9539 42.9118 18.4006 43.4653 17.718 43.4653C17.0353 43.4653 16.4819 42.9118 16.4819 42.2292Z" fill="black"/>
<path d="M13.9473 38.7185C13.9473 38.0358 14.5006 37.4824 15.1833 37.4824C15.8659 37.4824 16.4194 38.0358 16.4194 38.7185C16.4194 39.4011 15.8659 39.9546 15.1833 39.9546C14.5006 39.9546 13.9473 39.4011 13.9473 38.7185Z" fill="black"/>
<path d="M13.9473 30.4944C13.9473 29.8118 14.5006 29.2583 15.1833 29.2583C15.8659 29.2583 16.4194 29.8118 16.4194 30.4944C16.4194 31.1771 15.8659 31.7304 15.1833 31.7304C14.5006 31.7304 13.9473 31.1771 13.9473 30.4944Z" fill="black"/>
<path d="M16.4819 27.0787C16.4819 26.3961 17.0353 25.8428 17.718 25.8428C18.4006 25.8428 18.9539 26.3961 18.9539 27.0787C18.9539 27.7614 18.4006 28.3148 17.718 28.3148C17.0353 28.3148 16.4819 27.7614 16.4819 27.0787Z" fill="black"/>
<path d="M19.9263 24.7063C19.9263 24.0237 20.4797 23.4702 21.1623 23.4702C21.8451 23.4702 22.3984 24.0237 22.3984 24.7063C22.3984 25.3889 21.8451 25.9423 21.1623 25.9423C20.4797 25.9423 19.9263 25.3889 19.9263 24.7063Z" fill="black"/>
<path d="M17.4585 22.8846C17.4585 22.5433 17.7352 22.2666 18.0764 22.2666C18.4178 22.2666 18.6944 22.5433 18.6944 22.8846C18.6944 23.226 18.4178 23.5027 18.0764 23.5027C17.7352 23.5027 17.4585 23.226 17.4585 22.8846Z" fill="black"/>
<path d="M22.3984 20.9159C22.3984 20.5745 22.6751 20.2979 23.0165 20.2979C23.3578 20.2979 23.6345 20.5745 23.6345 20.9159C23.6345 21.2572 23.3578 21.5339 23.0165 21.5339C22.6751 21.5339 22.3984 21.2572 22.3984 20.9159Z" fill="black"/>
<path d="M27.665 21.0555C27.665 20.7142 27.9418 20.4375 28.2831 20.4375C28.6244 20.4375 28.9011 20.7142 28.9011 21.0555C28.9011 21.3969 28.6244 21.6736 28.2831 21.6736C27.9418 21.6736 27.665 21.3969 27.665 21.0555Z" fill="black"/>
<path d="M32.52 23.0135C32.52 22.6722 32.7967 22.3955 33.1381 22.3955C33.4793 22.3955 33.7561 22.6722 33.7561 23.0135C33.7561 23.3549 33.4793 23.6316 33.1381 23.6316C32.7967 23.6316 32.52 23.3549 32.52 23.0135Z" fill="black"/>
<path d="M36.4097 26.8207C36.4097 26.4793 36.6863 26.2026 37.0277 26.2026C37.3691 26.2026 37.6457 26.4793 37.6457 26.8207C37.6457 27.162 37.3691 27.4387 37.0277 27.4387C36.6863 27.4387 36.4097 27.162 36.4097 26.8207Z" fill="black"/>
<path d="M38.2949 37.223C38.2949 36.8817 38.5716 36.605 38.913 36.605C39.2543 36.605 39.531 36.8817 39.531 37.223C39.531 37.5644 39.2543 37.841 38.913 37.841C38.5716 37.841 38.2949 37.5644 38.2949 37.223Z" fill="black"/>
<path d="M38.2949 31.8612C38.2949 31.5198 38.5716 31.2432 38.913 31.2432C39.2543 31.2432 39.531 31.5198 39.531 31.8612C39.531 32.2026 39.2543 32.4792 38.913 32.4792C38.5716 32.4792 38.2949 32.2026 38.2949 31.8612Z" fill="black"/>
<path d="M36.1816 42.099C36.1816 41.7576 36.4583 41.481 36.7997 41.481C37.141 41.481 37.4177 41.7576 37.4177 42.099C37.4177 42.4403 37.141 42.717 36.7997 42.717C36.4583 42.717 36.1816 42.4403 36.1816 42.099Z" fill="black"/>
<path d="M32.3628 45.8348C32.3628 45.4936 32.6395 45.2168 32.9808 45.2168C33.3222 45.2168 33.5989 45.4936 33.5989 45.8348C33.5989 46.1762 33.3222 46.4529 32.9808 46.4529C32.6395 46.4529 32.3628 46.1762 32.3628 45.8348Z" fill="black"/>
<path d="M27.5347 47.8924C27.5347 47.5511 27.8115 47.2744 28.1527 47.2744C28.4941 47.2744 28.7707 47.5511 28.7707 47.8924C28.7707 48.2338 28.4941 48.5105 28.1527 48.5105C27.8115 48.5105 27.5347 48.2338 27.5347 47.8924Z" fill="black"/>
<path d="M22.1699 47.9647C22.1699 47.6234 22.4466 47.3467 22.788 47.3467C23.1293 47.3467 23.406 47.6234 23.406 47.9647C23.406 48.3059 23.1293 48.5827 22.788 48.5827C22.4466 48.5827 22.1699 48.3059 22.1699 47.9647Z" fill="black"/>
<path d="M24.625 50.7568C24.625 50.4716 24.8563 50.2402 25.1416 50.2402C25.4268 50.2402 25.658 50.4716 25.658 50.7568C25.658 51.0421 25.4268 51.2734 25.1416 51.2734C24.8563 51.2734 24.625 51.0421 24.625 50.7568Z" fill="black"/>
<path d="M30.8418 49.7524C30.8418 49.4672 31.073 49.2358 31.3583 49.2358C31.6436 49.2358 31.8748 49.4672 31.8748 49.7524C31.8748 50.0377 31.6436 50.269 31.3583 50.269C31.073 50.269 30.8418 50.0377 30.8418 49.7524Z" fill="black"/>
<path d="M36.3574 46.2752C36.3574 45.99 36.5886 45.7588 36.8739 45.7588C37.1591 45.7588 37.3905 45.99 37.3905 46.2752C37.3905 46.5606 37.1591 46.7918 36.8739 46.7918C36.5886 46.7918 36.3574 46.5606 36.3574 46.2752Z" fill="black"/>
<path d="M40.2383 41.1258C40.2383 40.8406 40.4695 40.6094 40.7547 40.6094C41.0401 40.6094 41.2713 40.8406 41.2713 41.1258C41.2713 41.4112 41.0401 41.6424 40.7547 41.6424C40.4695 41.6424 40.2383 41.4112 40.2383 41.1258Z" fill="black"/>
<path d="M41.6714 34.5625C41.6714 34.2772 41.9026 34.0459 42.188 34.0459C42.4732 34.0459 42.7044 34.2772 42.7044 34.5625C42.7044 34.8477 42.4732 35.0789 42.188 35.0789C41.9026 35.0789 41.6714 34.8477 41.6714 34.5625Z" fill="black"/>
<path d="M40.7554 28.3148C40.7554 28.0296 40.9867 27.7983 41.272 27.7983C41.5572 27.7983 41.7885 28.0296 41.7885 28.3148C41.7885 28.6002 41.5572 28.8314 41.272 28.8314C40.9867 28.8314 40.7554 28.6002 40.7554 28.3148Z" fill="black"/>
<path d="M37.2583 22.6269C37.2583 22.3416 37.4896 22.1104 37.7749 22.1104C38.0601 22.1104 38.2915 22.3416 38.2915 22.6269C38.2915 22.9122 38.0601 23.1434 37.7749 23.1434C37.4896 23.1434 37.2583 22.9122 37.2583 22.6269Z" fill="black"/>
<path d="M32.0049 19.2445C32.0049 18.9592 32.2361 18.728 32.5215 18.728C32.8067 18.728 33.0379 18.9592 33.0379 19.2445C33.0379 19.5299 32.8067 19.7611 32.5215 19.7611C32.2361 19.7611 32.0049 19.5299 32.0049 19.2445Z" fill="black"/>
<path d="M25.9629 17.5366C25.9629 17.2514 26.1942 17.02 26.4795 17.02C26.7647 17.02 26.9961 17.2514 26.9961 17.5366C26.9961 17.8219 26.7647 18.0531 26.4795 18.0531C26.1942 18.0531 25.9629 17.8219 25.9629 17.5366Z" fill="black"/>
<path d="M19.4097 18.4678C19.4097 18.1825 19.6409 17.9512 19.9261 17.9512C20.2114 17.9512 20.4427 18.1825 20.4427 18.4678C20.4427 18.753 20.2114 18.9842 19.9261 18.9842C19.6409 18.9842 19.4097 18.753 19.4097 18.4678Z" fill="black"/>
<path d="M13.8203 21.8794C13.8203 21.594 14.0517 21.3628 14.3369 21.3628C14.6221 21.3628 14.8535 21.594 14.8535 21.8794C14.8535 22.1646 14.6221 22.3958 14.3369 22.3958C14.0517 22.3958 13.8203 22.1646 13.8203 21.8794Z" fill="black"/>
<path d="M10.1831 27.1787C10.1831 26.8935 10.4143 26.6621 10.6997 26.6621C10.9849 26.6621 11.2161 26.8935 11.2161 27.1787C11.2161 27.4639 10.9849 27.6952 10.6997 27.6952C10.4143 27.6952 10.1831 27.4639 10.1831 27.1787Z" fill="black"/>
<path d="M8.45703 33.3534C8.45703 33.0681 8.68824 32.8369 8.97349 32.8369C9.25886 32.8369 9.49007 33.0681 9.49007 33.3534C9.49007 33.6387 9.25886 33.87 8.97349 33.87C8.68824 33.87 8.45703 33.6387 8.45703 33.3534Z" fill="black"/>
<path d="M9.6665 39.9546C9.6665 39.6693 9.89784 39.438 10.1831 39.438C10.4683 39.438 10.6997 39.6693 10.6997 39.9546C10.6997 40.2398 10.4683 40.471 10.1831 40.471C9.89784 40.471 9.6665 40.2398 9.6665 39.9546Z" fill="black"/>
<path d="M12.9707 45.3188C12.9707 45.0336 13.2019 44.8022 13.4873 44.8022C13.7725 44.8022 14.0037 45.0336 14.0037 45.3188C14.0037 45.6041 13.7725 45.8353 13.4873 45.8353C13.2019 45.8353 12.9707 45.6041 12.9707 45.3188Z" fill="black"/>
<path d="M18.1768 49.4648C18.1768 49.1796 18.408 48.9482 18.6932 48.9482C18.9786 48.9482 19.2098 49.1796 19.2098 49.4648C19.2098 49.7501 18.9786 49.9813 18.6932 49.9813C18.408 49.9813 18.1768 49.7501 18.1768 49.4648Z" fill="black"/>
<path d="M21.4219 53.1196C21.4219 52.913 21.5893 52.7456 21.7958 52.7456C22.0024 52.7456 22.1698 52.913 22.1698 53.1196C22.1698 53.3261 22.0024 53.4935 21.7958 53.4935C21.5893 53.4935 21.4219 53.3261 21.4219 53.1196Z" fill="black"/>
<path d="M28.7705 52.9741C28.7705 52.7675 28.9379 52.6001 29.1445 52.6001C29.351 52.6001 29.5184 52.7675 29.5184 52.9741C29.5184 53.1806 29.351 53.348 29.1445 53.348C28.9379 53.348 28.7705 53.1806 28.7705 52.9741Z" fill="black"/>
<path d="M35.6611 50.3549C35.6611 50.1484 35.8286 49.981 36.0351 49.981C36.2416 49.981 36.4091 50.1484 36.4091 50.3549C36.4091 50.5614 36.2416 50.7289 36.0351 50.7289C35.8286 50.7289 35.6611 50.5614 35.6611 50.3549Z" fill="black"/>
<path d="M41.2964 45.1533C41.2964 44.9467 41.4638 44.7793 41.6703 44.7793C41.8769 44.7793 42.0443 44.9467 42.0443 45.1533C42.0443 45.3598 41.8769 45.5272 41.6703 45.5272C41.4638 45.5272 41.2964 45.3598 41.2964 45.1533Z" fill="black"/>
<path d="M43.979 38.2148C43.979 38.0083 44.1464 37.8408 44.353 37.8408C44.5595 37.8408 44.7269 38.0083 44.7269 38.2148C44.7269 38.4213 44.5595 38.5887 44.353 38.5887C44.1464 38.5887 43.979 38.4213 43.979 38.2148Z" fill="black"/>
<path d="M44.3481 30.8691C44.3481 30.6625 44.5156 30.4951 44.7221 30.4951C44.9286 30.4951 45.0961 30.6625 45.0961 30.8691C45.0961 31.0756 44.9286 31.243 44.7221 31.243C44.5156 31.243 44.3481 31.0756 44.3481 30.8691Z" fill="black"/>
<path d="M41.415 23.6162C41.415 23.4096 41.5825 23.2422 41.789 23.2422C41.9955 23.2422 42.163 23.4096 42.163 23.6162C42.163 23.8227 41.9955 23.9901 41.789 23.9901C41.5825 23.9901 41.415 23.8227 41.415 23.6162Z" fill="black"/>
<path d="M36.1138 18.6103C36.1138 18.4038 36.2811 18.2363 36.4877 18.2363C36.6943 18.2363 36.8616 18.4038 36.8616 18.6103C36.8616 18.8168 36.6943 18.9843 36.4877 18.9843C36.2811 18.9843 36.1138 18.8168 36.1138 18.6103Z" fill="black"/>
<path d="M29.519 15.3828C29.519 15.1762 29.6865 15.0088 29.893 15.0088C30.0995 15.0088 30.267 15.1762 30.267 15.3828C30.267 15.5893 30.0995 15.7566 29.893 15.7566C29.6865 15.7566 29.519 15.5893 29.519 15.3828Z" fill="black"/>
<path d="M21.9253 15.2187C21.9253 15.0122 22.0927 14.8447 22.2993 14.8447C22.5058 14.8447 22.6732 15.0122 22.6732 15.2187C22.6732 15.4252 22.5058 15.5927 22.2993 15.5927C22.0927 15.5927 21.9253 15.4252 21.9253 15.2187Z" fill="black"/>
<path d="M14.8247 17.9511C14.8247 17.7446 14.9921 17.5771 15.1987 17.5771C15.4052 17.5771 15.5726 17.7446 15.5726 17.9511C15.5726 18.1576 15.4052 18.3251 15.1987 18.3251C14.9921 18.3251 14.8247 18.1576 14.8247 17.9511Z" fill="black"/>
<path d="M9.6665 23.2573C9.6665 23.0507 9.83394 22.8833 10.0405 22.8833C10.247 22.8833 10.4144 23.0507 10.4144 23.2573C10.4144 23.4638 10.247 23.6312 10.0405 23.6312C9.83394 23.6312 9.6665 23.4638 9.6665 23.2573Z" fill="black"/>
<path d="M6.49512 30.1215C6.49512 29.915 6.66255 29.7476 6.86908 29.7476C7.07568 29.7476 7.24298 29.915 7.24298 30.1215C7.24298 30.3281 7.07568 30.4955 6.86908 30.4955C6.66255 30.4955 6.49512 30.3281 6.49512 30.1215Z" fill="black"/>
<path d="M6.59717 37.5971C6.59717 37.3906 6.7646 37.2231 6.97113 37.2231C7.17766 37.2231 7.34509 37.3906 7.34509 37.5971C7.34509 37.8036 7.17766 37.9711 6.97113 37.9711C6.7646 37.9711 6.59717 37.8036 6.59717 37.5971Z" fill="black"/>
<path d="M9.04541 44.558C9.04541 44.3515 9.21284 44.1841 9.41937 44.1841C9.6259 44.1841 9.79334 44.3515 9.79334 44.558C9.79334 44.7646 9.6259 44.932 9.41937 44.932C9.21284 44.932 9.04541 44.7646 9.04541 44.558Z" fill="black"/>
<path d="M14.3364 50.3549C14.3364 50.1484 14.5039 49.981 14.7104 49.981C14.9169 49.981 15.0844 50.1484 15.0844 50.3549C15.0844 50.5614 14.9169 50.7289 14.7104 50.7289C14.5039 50.7289 14.3364 50.5614 14.3364 50.3549Z" fill="black"/>
<path d="M17.0996 45.6581C17.0996 45.3168 17.3763 45.04 17.7176 45.04C18.0589 45.04 18.3355 45.3168 18.3355 45.6581C18.3355 45.9994 18.0589 46.2761 17.7176 46.2761C17.3763 46.2761 17.0996 45.9994 17.0996 45.6581Z" fill="black"/>
<path d="M13.5884 41.871C13.5884 41.5296 13.8651 41.2529 14.2064 41.2529C14.5478 41.2529 14.8244 41.5296 14.8244 41.871C14.8244 42.2123 14.5478 42.489 14.2064 42.489C13.8651 42.489 13.5884 42.2123 13.5884 41.871Z" fill="black"/>
<path d="M11.4746 36.8646C11.4746 36.5233 11.7513 36.2466 12.0926 36.2466C12.434 36.2466 12.7107 36.5233 12.7107 36.8646C12.7107 37.206 12.434 37.4826 12.0926 37.4826C11.7513 37.4826 11.4746 37.206 11.4746 36.8646Z" fill="black"/>
<path d="M11.7349 31.6005C11.7349 31.2591 12.0115 30.9824 12.3529 30.9824C12.6943 30.9824 12.9709 31.2591 12.9709 31.6005C12.9709 31.9418 12.6943 32.2185 12.3529 32.2185C12.0115 32.2185 11.7349 31.9418 11.7349 31.6005Z" fill="black"/>
<path d="M13.5884 26.5609C13.5884 26.2195 13.8651 25.9429 14.2064 25.9429C14.5478 25.9429 14.8244 26.2195 14.8244 26.5609C14.8244 26.9023 14.5478 27.1789 14.2064 27.1789C13.8651 27.1789 13.5884 26.9023 13.5884 26.5609Z" fill="black"/>
<path d="M4.24361 2.9707C5.09235 2.9707 5.81534 3.25361 6.41259 3.81943C7.00983 4.38524 7.30846 5.27065 7.30846 6.4756V10.6406C7.30846 10.8187 7.24299 10.9733 7.11193 11.1043C6.981 11.2353 6.82643 11.3007 6.64834 11.3007C6.47026 11.3007 6.31828 11.2353 6.19255 11.1043C6.06681 10.9733 6.00394 10.8187 6.00394 10.6406V6.4756C6.00394 5.71072 5.80482 5.12657 5.40669 4.72316C5.00857 4.31976 4.49509 4.11805 3.8664 4.11805C3.14342 4.11805 2.55665 4.35905 2.10609 4.84104C1.64506 5.31255 1.37787 5.82074 1.30452 6.36558V10.6406C1.30452 10.8187 1.23903 10.9733 1.10805 11.1043C0.977083 11.2353 0.827772 11.3007 0.660118 11.3007C0.481996 11.3007 0.327435 11.2353 0.196464 11.1043C0.0654923 10.9733 0 10.8187 0 10.6406V3.66226C0 3.48413 0.0654923 3.32959 0.196464 3.1986C0.327435 3.06763 0.481996 3.00214 0.660118 3.00214C0.838241 3.00214 0.990177 3.06763 1.11591 3.1986C1.24165 3.32959 1.30452 3.48413 1.30452 3.66226V4.93534C1.36739 4.54766 1.66601 4.12853 2.20039 3.67797C2.73477 3.20646 3.41584 2.9707 4.24361 2.9707Z" fill="black"/>
<path d="M12.9039 2.95508C13.8889 2.95508 14.79 3.31657 15.6073 4.03956C16.4351 4.76254 16.8489 5.72129 16.8489 6.91577C16.8489 7.4082 16.5712 7.65447 16.0159 7.65447L10.232 7.62304C10.2949 8.45085 10.5987 9.08993 11.1436 9.54053C11.6885 9.99113 12.3329 10.2164 13.0768 10.2164C13.7684 10.2164 14.3762 10.0172 14.9 9.61911C15.141 9.46194 15.3244 9.38335 15.4501 9.38335C15.775 9.38335 15.9373 9.54572 15.9373 9.87058C15.9373 10.0592 15.8221 10.253 15.5916 10.4521C14.9524 11.0179 14.1036 11.3008 13.0454 11.3008C11.9243 11.3008 10.9498 10.9393 10.122 10.2164C9.29421 9.49337 8.88037 8.47176 8.88037 7.15153C8.88037 6.27137 9.09521 5.49601 9.52477 4.82541C10.3421 3.57853 11.4685 2.95508 12.9039 2.95508ZM12.9039 4.10243C12.2543 4.10243 11.6623 4.32246 11.1279 4.76254C10.5935 5.20262 10.2949 5.83131 10.232 6.64858H15.5758C15.513 5.83131 15.2144 5.20262 14.68 4.76254C14.1561 4.32246 13.5641 4.10243 12.9039 4.10243Z" fill="black"/>
<path d="M22.5226 2.95481C23.4865 2.95481 24.372 3.32679 25.1788 4.07073C25.9855 4.81468 26.389 5.83629 26.389 7.13555C26.389 8.45578 25.9909 9.48259 25.1945 10.2161C24.3877 10.96 23.497 11.332 22.5226 11.332C21.8625 11.332 21.273 11.1591 20.7543 10.8133C20.2357 10.4676 19.8926 10.038 19.7249 9.52454V10.6562C19.7249 10.8343 19.6595 10.9888 19.5284 11.1199C19.3975 11.2508 19.2482 11.3163 19.0805 11.3163C18.9024 11.3163 18.7479 11.2508 18.6168 11.1199C18.4859 10.9888 18.4204 10.8343 18.4204 10.6562V0.660118C18.4204 0.481995 18.4859 0.327448 18.6168 0.196464C18.7479 0.0654923 18.9024 0 19.0805 0C19.2586 0 19.4132 0.0654923 19.5441 0.196464C19.6752 0.327448 19.7406 0.481995 19.7406 0.660118V4.57367C19.9921 4.07073 20.3667 3.67519 20.8644 3.38703C21.3621 3.09889 21.9148 2.95481 22.5226 2.95481ZM22.334 10.1847C23.057 10.1847 23.6908 9.91747 24.2357 9.38309C24.8015 8.84871 25.0845 8.09948 25.0845 7.13555C25.0845 6.17161 24.8015 5.4224 24.2357 4.88801C23.6908 4.35363 23.057 4.08644 22.334 4.08644C21.6424 4.08644 21.0189 4.3484 20.4636 4.8723C19.9293 5.39621 19.6621 6.15057 19.6621 7.13555C19.6621 8.11001 19.9344 8.86442 20.4793 9.39881C21.0346 9.92267 21.6529 10.1847 22.334 10.1847Z" fill="black"/>
<path d="M31.0258 11.3315C30.177 11.3315 29.4541 11.0486 28.8568 10.4828C28.2596 9.91697 27.9609 9.03162 27.9609 7.8266V3.66158C27.9609 3.48346 28.0264 3.32891 28.1573 3.19793C28.2884 3.06696 28.443 3.00146 28.6211 3.00146C28.7991 3.00146 28.9511 3.06696 29.0769 3.19793C29.2026 3.32891 29.2655 3.48346 29.2655 3.66158V7.8266C29.2655 8.59154 29.4646 9.17567 29.8627 9.57912C30.2608 9.98244 30.7743 10.1842 31.403 10.1842C32.126 10.1842 32.7127 9.9484 33.1633 9.47689C33.6243 8.98447 33.8915 8.471 33.9649 7.93662V3.66158C33.9649 3.48346 34.0303 3.32891 34.1613 3.19793C34.2923 3.06696 34.4416 3.00146 34.6093 3.00146C34.7873 3.00146 34.9419 3.06696 35.0729 3.19793C35.2039 3.32891 35.2694 3.48346 35.2694 3.66158V10.64C35.2694 10.818 35.2039 10.9726 35.0729 11.1037C34.9419 11.2346 34.7873 11.3001 34.6093 11.3001C34.4312 11.3001 34.2792 11.2346 34.1535 11.1037C34.0277 10.9726 33.9649 10.818 33.9649 10.64V9.36687C33.902 9.74408 33.6034 10.1684 33.069 10.64C32.5241 11.1009 31.8431 11.3315 31.0258 11.3315Z" fill="black"/>
<path d="M38.4598 0.644401V10.6405C38.4598 10.8185 38.3943 10.9731 38.2633 11.1042C38.1323 11.2351 37.9831 11.3006 37.8154 11.3006C37.6373 11.3006 37.4827 11.2351 37.3517 11.1042C37.2207 10.9731 37.1553 10.8185 37.1553 10.6405V0.644401C37.1553 0.466278 37.2207 0.314342 37.3517 0.188606C37.4827 0.0628688 37.6373 0 37.8154 0C37.9831 0 38.1323 0.0628688 38.2633 0.188606C38.3943 0.314342 38.4598 0.466278 38.4598 0.644401Z" fill="black"/>
<path d="M43.8977 2.95508C44.5054 2.95508 45.0633 3.10439 45.5715 3.40301C46.0797 3.70164 46.4543 4.10243 46.6953 4.60537V3.66235C46.6953 3.48422 46.7582 3.32968 46.8839 3.19869C47.0096 3.06772 47.1616 3.00223 47.3397 3.00223C47.5283 3.00223 47.6855 3.06772 47.8112 3.19869C47.9369 3.32968 47.9998 3.48422 47.9998 3.66235V10.6564C47.9998 10.8345 47.9343 10.9891 47.8033 11.1202C47.6724 11.2511 47.5178 11.3166 47.3397 11.3166C47.172 11.3166 47.0228 11.2511 46.8917 11.1202C46.7608 10.9891 46.6953 10.8345 46.6953 10.6564V9.52481C46.5276 10.0383 46.1844 10.4678 45.6658 10.8136C45.1471 11.1594 44.5578 11.3323 43.8977 11.3323C42.9232 11.3323 42.0325 10.9603 41.2257 10.2164C40.4294 9.48285 40.0312 8.45605 40.0312 7.13581C40.0312 5.82607 40.4294 4.80446 41.2257 4.07099C42.0325 3.32705 42.9232 2.95508 43.8977 2.95508ZM44.0863 10.1849C44.7673 10.1849 45.3856 9.92293 45.9409 9.39907C46.4858 8.86469 46.7582 8.11027 46.7582 7.13581C46.7582 6.14044 46.4858 5.38599 45.9409 4.87256C45.396 4.34866 44.7778 4.08671 44.0863 4.08671C43.3738 4.08671 42.7346 4.3539 42.1688 4.88828C41.6135 5.42266 41.3358 6.17187 41.3358 7.13581C41.3358 8.09975 41.6135 8.84897 42.1688 9.38336C42.7346 9.91774 43.3738 10.1849 44.0863 10.1849Z" fill="black"/>
</svg>
